<?xml version="1.0" encoding="UTF-8" standalone="no"?>
<svg
   viewBox="0 0 24 24"
   version="1.1"
   id="svg4"
   sodipodi:docname="location-point.svg"
   inkscape:version="1.2.2 (732a01da63, 2022-12-09)"
   xmlns:inkscape="http://www.inkscape.org/namespaces/inkscape"
   xmlns:sodipodi="http://sodipodi.sourceforge.net/DTD/sodipodi-0.dtd"
   xmlns="http://www.w3.org/2000/svg"
   xmlns:svg="http://www.w3.org/2000/svg">
  <defs
     id="defs8" />
  <sodipodi:namedview
     id="namedview6"
     pagecolor="#ffffff"
     bordercolor="#000000"
     borderopacity="0.25"
     inkscape:showpageshadow="2"
     inkscape:pageopacity="0.0"
     inkscape:pagecheckerboard="0"
     inkscape:deskcolor="#d1d1d1"
     showgrid="false"
     inkscape:zoom="9.8333333"
     inkscape:cx="12"
     inkscape:cy="12.050847"
     inkscape:window-width="1600"
     inkscape:window-height="811"
     inkscape:window-x="-9"
     inkscape:window-y="-9"
     inkscape:window-maximized="1"
     inkscape:current-layer="svg4" />
  <path
     d="M18,4.48a8.45,8.45,0,0,0-12,12l5.27,5.28a1,1,0,0,0,1.42,0L18,16.43A8.45,8.45,0,0,0,18,4.48ZM16.57,15,12,19.59,7.43,15a6.46,6.46,0,1,1,9.14,0ZM9,7.41a4.32,4.32,0,0,0,0,6.1,4.31,4.31,0,0,0,7.36-3,4.24,4.24,0,0,0-1.26-3.05A4.3,4.3,0,0,0,9,7.41Zm4.69,4.68a2.33,2.33,0,1,1,.67-1.63A2.33,2.33,0,0,1,13.64,12.09Z"
     id="path2"
     style="fill:#176b87;fill-opacity:1" />
</svg>
