<?xml version="1.0" encoding="UTF-8" standalone="no"?>
<!-- Created with Inkscape (http://www.inkscape.org/) -->

<svg
   width="42.862499mm"
   height="38.364582mm"
   viewBox="0 0 42.862499 38.364582"
   version="1.1"
   id="svg5"
   xml:space="preserve"
   inkscape:export-filename="logo192.svg"
   inkscape:export-xdpi="96"
   inkscape:export-ydpi="96"
   xmlns:inkscape="http://www.inkscape.org/namespaces/inkscape"
   xmlns:sodipodi="http://sodipodi.sourceforge.net/DTD/sodipodi-0.dtd"
   xmlns="http://www.w3.org/2000/svg"
   xmlns:svg="http://www.w3.org/2000/svg"><sodipodi:namedview
     id="namedview7"
     pagecolor="#ffffff"
     bordercolor="#000000"
     borderopacity="0.25"
     inkscape:showpageshadow="2"
     inkscape:pageopacity="0.0"
     inkscape:pagecheckerboard="0"
     inkscape:deskcolor="#d1d1d1"
     inkscape:document-units="mm"
     showgrid="false" /><defs
     id="defs2" /><g
     inkscape:label="Layer 1"
     inkscape:groupmode="layer"
     id="layer1"
     transform="translate(-83.022141,-120.50838)"><path
       style="fill:#004daf;fill-opacity:1;stroke-width:0.264583"
       d="m 99.801279,156.87263 c -7.112552,0 -8.765184,-0.0668 -8.877244,-0.35883 -0.07573,-0.19736 -0.101762,-5.28728 -0.05784,-11.31094 0.07985,-10.95211 0.07985,-10.95211 0.843106,-12.80419 0.419789,-1.01865 1.281467,-2.58566 1.914841,-3.48225 0.633373,-0.89659 1.71866,-2.11996 2.411747,-2.71861 0.69309,-0.59864 2.06341,-1.49396 3.04515,-1.9896 0.981741,-0.49563 2.695351,-1.10369 3.808001,-1.35123 1.41234,-0.31421 2.67055,-0.40849 4.16814,-0.3123 1.17982,0.0758 2.91903,0.40016 3.86491,0.72087 0.94589,0.3207 2.52052,1.11505 3.49918,1.76521 0.97866,0.65017 2.32532,1.80002 2.99259,2.55522 0.66726,0.75521 1.67152,2.3256 2.23168,3.48977 0.56015,1.16417 1.14825,2.74761 1.30688,3.51875 0.15863,0.77115 0.28666,2.1999 0.28451,3.175 -0.002,0.97511 -0.18344,2.53455 -0.40287,3.46543 -0.21942,0.93088 -0.84266,2.53822 -1.38495,3.57187 -0.56584,1.07852 -1.76732,2.70295 -2.81952,3.81208 -1.83353,1.9327 -1.83353,1.9327 1.12428,4.89893 1.62679,1.63142 2.95781,3.05365 2.95781,3.16052 0,0.10686 -1.04366,0.1943 -2.31924,0.1943 -2.31924,0 -2.31924,0 -5.47496,-3.16396 -3.15572,-3.16396 -3.15572,-3.16396 -2.6417,-3.73448 0.28271,-0.31378 1.42023,-1.48632 2.52782,-2.60564 1.10759,-1.11932 2.43897,-2.68326 2.9586,-3.47542 0.51964,-0.79216 1.14518,-2.14297 1.39008,-3.00179 0.31689,-1.11124 0.41386,-2.21881 0.3363,-3.84104 -0.0887,-1.85422 -0.26289,-2.60843 -0.93387,-4.04227 -0.45369,-0.96951 -1.33835,-2.31978 -1.96592,-3.00062 -0.62757,-0.68083 -1.62002,-1.55902 -2.20543,-1.95152 -0.58542,-0.3925 -1.60017,-0.92609 -2.25502,-1.18576 -0.67315,-0.26692 -2.22556,-0.53191 -3.57187,-0.60968 -1.98464,-0.11466 -2.66014,-0.043 -4.05572,0.43046 -0.92096,0.31242 -2.13447,0.85842 -2.696701,1.21334 -0.56222,0.35491 -1.57061,1.21369 -2.24087,1.9084 -0.67025,0.69471 -1.587986,2.03197 -2.039402,2.9717 -0.678146,1.41173 -0.842644,2.12704 -0.946722,4.11682 -0.0941,1.79894 -0.01061,2.80502 0.329972,3.97659 0.250765,0.8626 0.736335,2.04613 1.079043,2.63005 0.342709,0.58393 3.307729,3.73815 6.58894,7.00938 3.28121,3.27123 5.96583,6.03943 5.96583,6.15156 0,0.11213 -3.9328,0.20388 -8.739551,0.20388 z m 6.215051,-10.31875 c -0.15762,0 -1.38448,-1.12497 -2.72635,-2.49993 -1.51318,-1.5505 -2.65589,-2.98239 -3.00883,-3.77031 -0.392711,-0.87668 -0.557851,-1.74179 -0.532871,-2.79145 0.0199,-0.83658 0.24571,-1.96256 0.501771,-2.50217 0.25606,-0.53961 0.92853,-1.4304 1.49439,-1.97954 0.63887,-0.62001 1.57481,-1.17054 2.4694,-1.45253 1.21929,-0.38435 1.6649,-0.40706 2.90077,-0.14784 0.812,0.17032 1.93635,0.65647 2.53289,1.09517 0.59,0.43389 1.35102,1.19843 1.69116,1.69899 0.34014,0.50056 0.75457,1.45078 0.92097,2.1116 0.22427,0.89066 0.22632,1.5569 0.008,2.57534 -0.16206,0.75562 -0.54876,1.74704 -0.85935,2.20316 -0.31057,0.45611 -1.58631,1.87109 -2.83497,3.1444 -1.24865,1.27331 -2.39925,2.31511 -2.55687,2.31511 z m 0.0425,-6.08542 c 0.89764,0 1.34083,-0.16982 2.01484,-0.77205 0.73665,-0.6582 0.86407,-0.95007 0.86407,-1.97928 0,-1.01076 -0.1408,-1.34802 -0.86511,-2.07223 -0.73436,-0.73425 -1.04568,-0.86111 -2.05986,-0.83939 -0.92306,0.0198 -1.36826,0.19183 -1.95776,0.7566 -0.41965,0.40205 -0.83744,1.0276 -0.92843,1.39011 -0.091,0.36251 -0.0325,1.06197 0.13004,1.55437 0.16251,0.49239 0.60056,1.13525 0.97345,1.42857 0.44371,0.34901 1.07565,0.5333 1.82876,0.5333 z"
       id="path4592" /><path
       style="fill:#1a1a1a;fill-opacity:1;stroke-width:0.594555"
       d="m 31.636541,136.78606 c -5.048167,-0.25248 -6.851567,-0.55681 -7.274194,-1.22754 -0.699166,-1.10962 -0.7036,-46.670895 -0.0067,-68.373814 0.565087,-17.596782 0.70744,-18.311067 5.47806,-27.48724 C 35.113922,29.541101 42.015212,21.953266 50.69829,16.757261 63.059068,9.360499 75.82053,6.6283594 88.976322,8.5622025 c 7.768324,1.1419084 11.478228,2.3276325 18.161238,5.8045155 12.43897,6.471463 21.26989,16.421731 26.95858,30.375649 3.28806,8.065353 4.00828,12.434204 3.65067,22.145061 -0.56706,15.398919 -5.12801,25.804712 -17.31324,39.500162 -4.36708,4.90832 -5.04267,6.49275 -3.83171,8.98617 0.45247,0.93166 4.93589,5.99967 9.96313,11.26224 5.02725,5.26256 8.95133,9.75744 8.72018,9.9886 -0.23114,0.23117 -3.40792,0.42031 -7.0595,0.42031 -5.28219,0 -7.09461,-0.22635 -8.86713,-1.10741 -3.69934,-1.83883 -23.066201,-21.0426 -23.032645,-22.83869 0.0042,-0.23686 4.057615,-4.71145 9.007095,-9.94353 10.5026,-11.10228 14.05004,-15.904227 16.56276,-22.419907 3.5535,-9.214554 3.64576,-22.531414 0.21545,-31.100179 C 116.83303,36.450448 105.23756,25.79215 92.904515,22.789017 86.928935,21.333944 72.72451,21.338936 68.373816,22.797638 55.43123,27.137032 46.774469,34.641756 40.994541,46.533297 c -2.931146,6.030496 -3.744918,11.048236 -3.385747,20.876591 0.234666,6.421371 0.560848,8.57894 1.844026,12.197537 2.961168,8.350578 3.482531,8.964949 33.353329,39.303555 l 17.268921,17.53937 -9.215601,0.36723 c -11.217813,0.44701 -40.023953,0.42857 -49.222928,-0.0315 z"
       id="path4985"
       transform="matrix(0.26458333,0,0,0.26458333,83.022141,120.50838)" /><path
       style="fill:#004daf;fill-opacity:1;stroke-width:0.594555"
       d="m 29.133191,136.34335 c -1.144518,-0.1177 -2.711607,-0.35472 -3.48242,-0.52673 l -1.401478,-0.31274 0.2881,-39.956497 C 24.730199,68.807109 25.05609,54.312607 25.522656,51.726278 26.92939,43.928303 34.188178,31.574069 41.592001,24.376752 59.997863,6.4842606 88.660178,3.2324896 110.29512,16.582307 c 9.65459,5.957355 16.10264,13.221847 21.43113,24.144705 4.56895,9.365907 5.61768,13.699813 5.60812,23.175692 -0.0169,16.779748 -3.73059,26.221114 -16.24416,41.298066 -4.05321,4.8835 -5.152,6.60422 -5.152,8.06811 0,2.12523 0.8104,3.16386 11.82481,15.15498 l 7.37271,8.02649 -6.39532,0.16943 c -5.6208,0.14891 -6.72929,0.008 -9.15285,-1.16465 -3.33668,-1.61427 -22.885807,-20.74446 -22.578499,-22.09466 0.110367,-0.48492 3.809119,-4.8016 8.219459,-9.59262 C 119.0339,88.770866 122.65107,82.851632 124.20205,72.719091 126.49908,57.712521 122.97141,45.764648 113.07244,35.024205 108.83868,30.430539 102.11811,25.669721 97.347749,23.884899 92.41632,22.039816 85.113462,21.201322 77.01954,21.550874 c -6.261038,0.270394 -7.828027,0.556662 -11.839415,2.1629 -11.376007,4.555173 -19.796491,12.532459 -24.742159,23.439896 -2.56558,5.658266 -3.162445,9.870561 -2.856167,20.157034 0.250401,8.409837 0.40734,9.435795 2.098532,13.71876 1.00534,2.546033 2.970585,6.142638 4.36721,7.992453 2.739581,3.628551 13.145501,14.537303 32.819355,34.405243 l 12.420139,12.54266 -4.600767,0.38891 c -4.65079,0.39313 -51.707053,0.3801 -55.553077,-0.0154 z"
       id="path4987"
       transform="matrix(0.26458333,0,0,0.26458333,83.022141,120.50838)" /><path
       style="fill:#000000;fill-opacity:1;stroke-width:0.594555"
       d="m 26.29679,135.72207 -1.944568,-0.24072 0.313639,-27.45958 C 25.341241,48.891224 25.215454,50.583446 29.57961,41.917111 37.817833,25.557657 50.610396,14.850672 67.184706,10.442792 72.373976,9.0627239 84.401643,8.5592972 90.125173,9.4826021 104.76294,11.843927 118.8006,20.777454 126.79152,32.816945 c 3.15259,4.749836 7.98532,14.988052 9.06607,19.20661 1.08929,4.251917 1.25812,18.107028 0.28831,23.661443 -1.74127,9.972868 -4.64871,15.580841 -14.96681,28.868512 -6.25605,8.05655 -6.48707,9.11918 -2.94834,13.56089 1.2609,1.58264 5.42317,6.28878 9.24949,10.4581 l 6.95696,7.58058 h -6.47207 c -6.3053,0 -6.54744,-0.0498 -9.39772,-1.93231 -3.35609,-2.21658 -21.060403,-19.47332 -21.060403,-20.52797 0,-0.38493 3.517733,-4.65241 7.817193,-9.4833 13.27322,-14.913832 16.81823,-20.449554 18.65923,-29.137393 1.10064,-5.193984 1.09825,-16.073728 -0.005,-20.750066 C 121.47945,43.723347 114.24854,33.863792 104.12042,27.244426 97.493136,22.913084 93.635729,21.892011 82.618429,21.552753 71.489008,21.210042 68.377759,21.756035 61.347188,25.285639 51.907932,30.024491 45.310164,36.58458 41.033362,45.483451 c -3.292629,6.851077 -3.752814,9.721143 -3.485654,21.73925 l 0.230449,10.366716 2.75587,5.648272 c 3.114596,6.383498 6.613569,10.342419 33.105203,37.456961 7.827574,8.01163 14.110054,14.76726 13.961059,15.01251 -0.272889,0.4492 -57.682281,0.46316 -61.303499,0.0149 z"
       id="path5062"
       transform="matrix(0.26458333,0,0,0.26458333,83.022141,120.50838)" /></g></svg>
